<svg width="16" height="16" viewBox="0 0 16 16" fill="none" xmlns="http://www.w3.org/2000/svg">
<g id="Vector">
<path d="M0.0359218 0.42789C0.151617 0.094447 0.51216 -0.0808335 0.841226 0.0364041L1.09503 0.126822C1.6142 0.311762 2.05516 0.468841 2.40217 0.641382C2.77322 0.82587 3.0914 1.05314 3.33071 1.40801C3.56817 1.76012 3.6662 2.14643 3.71145 2.57C3.7317 2.75961 3.74239 2.96948 3.74802 3.20016H12.7064C14.1253 3.20016 15.4026 3.20016 15.7764 3.69259C16.1503 4.18503 16.0041 4.92701 15.7118 6.41099L15.2909 8.48007C15.0256 9.78471 14.8929 10.437 14.4283 10.8206C13.9637 11.2043 13.3064 11.2043 11.9919 11.2043H7.52639C5.17786 11.2043 4.0036 11.2043 3.27401 10.4245C2.54441 9.64468 2.49116 8.81637 2.49116 6.30624V4.08618C2.49116 3.45476 2.4903 3.03219 2.45564 2.70775C2.42252 2.39769 2.36383 2.24288 2.28782 2.13017C2.21366 2.02021 2.1011 1.91745 1.84575 1.79049C1.57389 1.65531 1.20442 1.52258 0.64223 1.32229L0.422267 1.24392C0.093201 1.12669 -0.0797652 0.761342 0.0359218 0.42789Z" fill="#EAECEE"/>
<path d="M4.59657 13.44C5.29419 13.44 5.85972 14.013 5.85972 14.7199C5.85972 15.4268 5.29419 15.9999 4.59657 15.9999C3.89896 15.9999 3.33343 15.4268 3.33343 14.7199C3.33343 14.013 3.89896 13.44 4.59657 13.44Z" fill="#EAECEE"/>
<path d="M12.1754 13.44C12.873 13.44 13.4386 14.013 13.4386 14.72C13.4386 15.4269 12.873 16 12.1754 16C11.4778 16 10.9123 15.4269 10.9123 14.72C10.9123 14.013 11.4778 13.44 12.1754 13.44Z" fill="#EAECEE"/>
</g>
</svg>
